<mxfile host="app.diagrams.net" modified="2023-07-14T10:54:39.414Z" agent="Mozilla/5.0 (X11; Linux x86_64) AppleWebKit/537.36 (KHTML, like Gecko) Chrome/114.0.0.0 Safari/537.36" etag="RmPaHPGjmCAzYCqQc8Sb" version="21.6.2" type="github">
  <diagram name="Page-1" id="oymeVbD86K6y3CQjtuVk">
    <mxGraphModel dx="1648" dy="1617" grid="1" gridSize="10" guides="1" tooltips="1" connect="1" arrows="1" fold="1" page="1" pageScale="1" pageWidth="827" pageHeight="1169" math="0" shadow="0">
      <root>
        <mxCell id="0" />
        <mxCell id="1" parent="0" />
        <mxCell id="TFMEDgf7NPYoONva51vZ-1" value="" style="rounded=0;html=1;jettySize=auto;orthogonalLoop=1;fontSize=11;endArrow=block;endFill=0;endSize=8;strokeWidth=1;shadow=0;labelBackgroundColor=none;edgeStyle=orthogonalEdgeStyle;" parent="1" source="TFMEDgf7NPYoONva51vZ-2" edge="1">
          <mxGeometry relative="1" as="geometry">
            <mxPoint x="-100" y="160" as="targetPoint" />
          </mxGeometry>
        </mxCell>
        <mxCell id="TFMEDgf7NPYoONva51vZ-2" value="&lt;font style=&quot;font-size: 10px;&quot;&gt;List data from&lt;br&gt;live_txn_work_assing&amp;nbsp;table with date filter&lt;/font&gt;" style="rounded=1;whiteSpace=wrap;html=1;fontSize=12;glass=0;strokeWidth=1;shadow=0;" parent="1" vertex="1">
          <mxGeometry x="-170" y="50" width="140" height="60" as="geometry" />
        </mxCell>
        <mxCell id="TFMEDgf7NPYoONva51vZ-3" value="Accept" style="rounded=0;html=1;jettySize=auto;orthogonalLoop=1;fontSize=11;endArrow=block;endFill=0;endSize=8;strokeWidth=1;shadow=0;labelBackgroundColor=none;edgeStyle=orthogonalEdgeStyle;exitX=0;exitY=0.5;exitDx=0;exitDy=0;" parent="1" source="TFMEDgf7NPYoONva51vZ-5" target="TFMEDgf7NPYoONva51vZ-6" edge="1">
          <mxGeometry x="-0.6087" y="-10" relative="1" as="geometry">
            <mxPoint as="offset" />
            <Array as="points">
              <mxPoint x="-340" y="200" />
            </Array>
          </mxGeometry>
        </mxCell>
        <mxCell id="TFMEDgf7NPYoONva51vZ-4" value="Reject" style="edgeStyle=orthogonalEdgeStyle;rounded=0;html=1;jettySize=auto;orthogonalLoop=1;fontSize=11;endArrow=block;endFill=0;endSize=8;strokeWidth=1;shadow=0;labelBackgroundColor=none;" parent="1" source="TFMEDgf7NPYoONva51vZ-5" target="TFMEDgf7NPYoONva51vZ-7" edge="1">
          <mxGeometry x="-0.2" y="10" relative="1" as="geometry">
            <mxPoint as="offset" />
          </mxGeometry>
        </mxCell>
        <mxCell id="TFMEDgf7NPYoONva51vZ-5" value="Feedback&lt;br&gt;decision UI" style="rhombus;whiteSpace=wrap;html=1;shadow=0;fontFamily=Helvetica;fontSize=12;align=center;strokeWidth=1;spacing=6;spacingTop=-4;" parent="1" vertex="1">
          <mxGeometry x="-150" y="160" width="100" height="80" as="geometry" />
        </mxCell>
        <mxCell id="_ba3FvHHlMeArX_780Xx-3" style="edgeStyle=orthogonalEdgeStyle;rounded=0;orthogonalLoop=1;jettySize=auto;html=1;exitX=1;exitY=0.5;exitDx=0;exitDy=0;entryX=0;entryY=0.5;entryDx=0;entryDy=0;dashed=1;" edge="1" parent="1" source="TFMEDgf7NPYoONva51vZ-6" target="TFMEDgf7NPYoONva51vZ-10">
          <mxGeometry relative="1" as="geometry" />
        </mxCell>
        <mxCell id="_ba3FvHHlMeArX_780Xx-5" style="edgeStyle=orthogonalEdgeStyle;rounded=0;orthogonalLoop=1;jettySize=auto;html=1;exitX=0.5;exitY=1;exitDx=0;exitDy=0;entryX=0.5;entryY=0;entryDx=0;entryDy=0;" edge="1" parent="1" source="TFMEDgf7NPYoONva51vZ-6" target="TFMEDgf7NPYoONva51vZ-13">
          <mxGeometry relative="1" as="geometry">
            <mxPoint x="-310" y="390" as="targetPoint" />
          </mxGeometry>
        </mxCell>
        <mxCell id="TFMEDgf7NPYoONva51vZ-6" value="&lt;font style=&quot;font-size: 10px;&quot;&gt;Updating live_txn_feedbacks table with feedback_value accept&lt;/font&gt;" style="rounded=1;whiteSpace=wrap;html=1;fontSize=12;glass=0;strokeWidth=1;shadow=0;" parent="1" vertex="1">
          <mxGeometry x="-410" y="293" width="140" height="60" as="geometry" />
        </mxCell>
        <mxCell id="TFMEDgf7NPYoONva51vZ-7" value="Updating live_txn_feedbacks table with feedback_value reject" style="rounded=1;whiteSpace=wrap;html=1;fontSize=12;glass=0;strokeWidth=1;shadow=0;" parent="1" vertex="1">
          <mxGeometry x="77" y="170" width="170" height="60" as="geometry" />
        </mxCell>
        <mxCell id="_ba3FvHHlMeArX_780Xx-7" style="edgeStyle=orthogonalEdgeStyle;rounded=0;orthogonalLoop=1;jettySize=auto;html=1;exitX=0.5;exitY=1;exitDx=0;exitDy=0;entryX=0.5;entryY=0;entryDx=0;entryDy=0;dashed=1;" edge="1" parent="1" source="TFMEDgf7NPYoONva51vZ-10" target="TFMEDgf7NPYoONva51vZ-13">
          <mxGeometry relative="1" as="geometry" />
        </mxCell>
        <mxCell id="_ba3FvHHlMeArX_780Xx-9" style="edgeStyle=orthogonalEdgeStyle;rounded=0;orthogonalLoop=1;jettySize=auto;html=1;exitX=1;exitY=0.5;exitDx=0;exitDy=0;" edge="1" parent="1" source="TFMEDgf7NPYoONva51vZ-10" target="TFMEDgf7NPYoONva51vZ-15">
          <mxGeometry relative="1" as="geometry" />
        </mxCell>
        <mxCell id="TFMEDgf7NPYoONva51vZ-10" value="&lt;font style=&quot;font-size: 10px;&quot;&gt;Complete to copy all accepted to sourcing folder&lt;br&gt;&lt;/font&gt;" style="rounded=1;whiteSpace=wrap;html=1;fontSize=12;glass=0;strokeWidth=1;shadow=0;" parent="1" vertex="1">
          <mxGeometry x="-200" y="293" width="130" height="60" as="geometry" />
        </mxCell>
        <mxCell id="TFMEDgf7NPYoONva51vZ-12" value="" style="edgeStyle=orthogonalEdgeStyle;rounded=0;orthogonalLoop=1;jettySize=auto;html=1;" parent="1" source="TFMEDgf7NPYoONva51vZ-13" target="TFMEDgf7NPYoONva51vZ-18" edge="1">
          <mxGeometry relative="1" as="geometry" />
        </mxCell>
        <mxCell id="TFMEDgf7NPYoONva51vZ-13" value="&lt;font style=&quot;font-size: 10px;&quot;&gt;Send copied images for&amp;nbsp;&lt;br&gt;data cleaning&lt;br&gt;&lt;/font&gt;" style="rounded=1;whiteSpace=wrap;html=1;fontSize=12;glass=0;strokeWidth=1;shadow=0;" parent="1" vertex="1">
          <mxGeometry x="-400" y="423" width="120" height="40" as="geometry" />
        </mxCell>
        <mxCell id="TFMEDgf7NPYoONva51vZ-15" value="" style="sketch=0;points=[[0,0,0],[0.25,0,0],[0.5,0,0],[0.75,0,0],[1,0,0],[0,1,0],[0.25,1,0],[0.5,1,0],[0.75,1,0],[1,1,0],[0,0.25,0],[0,0.5,0],[0,0.75,0],[1,0.25,0],[1,0.5,0],[1,0.75,0]];outlineConnect=0;fontColor=#232F3E;gradientColor=#60A337;gradientDirection=north;fillColor=#277116;strokeColor=#ffffff;dashed=0;verticalLabelPosition=bottom;verticalAlign=top;align=center;html=1;fontSize=12;fontStyle=0;aspect=fixed;shape=mxgraph.aws4.resourceIcon;resIcon=mxgraph.aws4.s3;direction=east;" parent="1" vertex="1">
          <mxGeometry x="70" y="291" width="64" height="64" as="geometry" />
        </mxCell>
        <mxCell id="TFMEDgf7NPYoONva51vZ-17" value="Copy Images to S4 Bucket" style="whiteSpace=wrap;html=1;dashed=1;rounded=1;" parent="1" vertex="1">
          <mxGeometry x="-50" y="340" width="80" height="40" as="geometry" />
        </mxCell>
        <mxCell id="TFMEDgf7NPYoONva51vZ-18" value="&lt;br&gt;Vision DB" style="strokeWidth=1;html=1;shape=mxgraph.flowchart.database;whiteSpace=wrap;" parent="1" vertex="1">
          <mxGeometry x="-370" y="525" width="60" height="60" as="geometry" />
        </mxCell>
        <mxCell id="TFMEDgf7NPYoONva51vZ-24" style="edgeStyle=orthogonalEdgeStyle;rounded=0;orthogonalLoop=1;jettySize=auto;html=1;exitX=0.5;exitY=1;exitDx=0;exitDy=0;entryX=0.5;entryY=0;entryDx=0;entryDy=0;" parent="1" source="TFMEDgf7NPYoONva51vZ-21" target="TFMEDgf7NPYoONva51vZ-25" edge="1">
          <mxGeometry relative="1" as="geometry">
            <mxPoint x="-100" y="-170" as="targetPoint" />
          </mxGeometry>
        </mxCell>
        <mxCell id="TFMEDgf7NPYoONva51vZ-21" value="Get first n number of images and date from&amp;nbsp; live_txn_work" style="rounded=1;whiteSpace=wrap;html=1;" parent="1" vertex="1">
          <mxGeometry x="-170" y="-290" width="140" height="60" as="geometry" />
        </mxCell>
        <mxCell id="TFMEDgf7NPYoONva51vZ-23" value="" style="edgeStyle=orthogonalEdgeStyle;rounded=0;orthogonalLoop=1;jettySize=auto;html=1;" parent="1" source="TFMEDgf7NPYoONva51vZ-22" target="TFMEDgf7NPYoONva51vZ-21" edge="1">
          <mxGeometry relative="1" as="geometry" />
        </mxCell>
        <mxCell id="TFMEDgf7NPYoONva51vZ-22" value="&lt;br&gt;Vision DB" style="strokeWidth=1;html=1;shape=mxgraph.flowchart.database;whiteSpace=wrap;" parent="1" vertex="1">
          <mxGeometry x="-135" y="-420" width="70" height="70" as="geometry" />
        </mxCell>
        <mxCell id="TFMEDgf7NPYoONva51vZ-28" style="edgeStyle=orthogonalEdgeStyle;rounded=0;orthogonalLoop=1;jettySize=auto;html=1;exitX=0.5;exitY=1;exitDx=0;exitDy=0;entryX=0.5;entryY=0;entryDx=0;entryDy=0;" parent="1" source="TFMEDgf7NPYoONva51vZ-25" target="TFMEDgf7NPYoONva51vZ-2" edge="1">
          <mxGeometry relative="1" as="geometry">
            <mxPoint x="-100" y="40" as="targetPoint" />
          </mxGeometry>
        </mxCell>
        <mxCell id="TFMEDgf7NPYoONva51vZ-25" value="Insert assigned images and date to live_txn_work_assing" style="rounded=1;whiteSpace=wrap;html=1;" parent="1" vertex="1">
          <mxGeometry x="-165" y="-90" width="130" height="60" as="geometry" />
        </mxCell>
        <mxCell id="TFMEDgf7NPYoONva51vZ-27" style="edgeStyle=orthogonalEdgeStyle;rounded=0;orthogonalLoop=1;jettySize=auto;html=1;entryX=0.25;entryY=1;entryDx=0;entryDy=0;dashed=1;" parent="1" source="TFMEDgf7NPYoONva51vZ-26" target="TFMEDgf7NPYoONva51vZ-21" edge="1">
          <mxGeometry relative="1" as="geometry">
            <mxPoint x="-100" y="-230" as="targetPoint" />
          </mxGeometry>
        </mxCell>
        <mxCell id="TFMEDgf7NPYoONva51vZ-26" value="Sorter request for the task with his user_id" style="rounded=1;whiteSpace=wrap;html=1;" parent="1" vertex="1">
          <mxGeometry x="-350" y="-180" width="120" height="60" as="geometry" />
        </mxCell>
      </root>
    </mxGraphModel>
  </diagram>
</mxfile>
